<?xml version="1.0" encoding="UTF-8" standalone="no"?>
<svg
   xmlns:dc="http://purl.org/dc/elements/1.1/"
   xmlns:cc="http://creativecommons.org/ns#"
   xmlns:rdf="http://www.w3.org/1999/02/22-rdf-syntax-ns#"
   xmlns:svg="http://www.w3.org/2000/svg"
   xmlns="http://www.w3.org/2000/svg"
   xmlns:xlink="http://www.w3.org/1999/xlink"
   xmlns:sodipodi="http://sodipodi.sourceforge.net/DTD/sodipodi-0.dtd"
   xmlns:inkscape="http://www.inkscape.org/namespaces/inkscape"
   width="378.108"
   height="359.603"
   viewBox="0 0 100.041 95.145"
   version="1.1"
   id="svg369"
   sodipodi:docname="Seal of Blitar Regency (1).svg"
   inkscape:version="1.0.1 (3bc2e813f5, 2020-09-07)">
  <metadata
     id="metadata373">
    <rdf:RDF>
      <cc:Work
         rdf:about="">
        <dc:format>image/svg+xml</dc:format>
        <dc:type
           rdf:resource="http://purl.org/dc/dcmitype/StillImage" />
      </cc:Work>
    </rdf:RDF>
  </metadata>
  <sodipodi:namedview
     pagecolor="#ffffff"
     bordercolor="#666666"
     borderopacity="1"
     objecttolerance="10"
     gridtolerance="10"
     guidetolerance="10"
     inkscape:pageopacity="0"
     inkscape:pageshadow="2"
     inkscape:window-width="1366"
     inkscape:window-height="705"
     id="namedview371"
     showgrid="false"
     inkscape:zoom="0.62559957"
     inkscape:cx="288.30266"
     inkscape:cy="379.49446"
     inkscape:window-x="-8"
     inkscape:window-y="-8"
     inkscape:window-maximized="1"
     inkscape:current-layer="svg369" />
  <style
     id="style2"><![CDATA[.B{stroke-width:.265}.C{opacity:.999}.D{fill:#ffe115}.E{stroke:#c3aa00}.F{stroke:#000}.G{fill:#ffed76}.H{fill:#fff}.I{fill:#00923f}.J{stroke:#005a27}.K{fill:#e4e4e4}.L{stroke:#acacac}.M{fill:#00ac4b}.N{fill-rule:evenodd}.O{stroke-width:.45}]]></style>
  <defs
     id="defs51">
    <linearGradient
       id="linearGradient1695"
       gradientUnits="userSpaceOnUse">
      <stop
         offset="0"
         stop-color="#fff"
         id="stop1679" />
      <stop
         offset=".257"
         stop-color="#d3d3d3"
         id="stop1681" />
      <stop
         offset=".344"
         stop-color="#a9a9a9"
         id="stop1683" />
      <stop
         offset=".394"
         stop-color="#d3d3d3"
         id="stop1685"
         style="stop-color:#ffffff;stop-opacity:1" />
      <stop
         offset="0.52713394"
         stop-color="#fff"
         id="stop1687" />
      <stop
         offset=".666"
         stop-color="#d3d3d3"
         id="stop1689"
         style="stop-color:#ffffff;stop-opacity:1" />
      <stop
         offset=".704"
         stop-color="gray"
         id="stop1691" />
      <stop
         offset="1"
         stop-color="#fff"
         id="stop1693" />
    </linearGradient>
    <linearGradient
       id="A"
       gradientUnits="userSpaceOnUse">
      <stop
         offset="0"
         stop-color="#fff"
         id="stop4" />
      <stop
         offset=".257"
         stop-color="#d3d3d3"
         id="stop6" />
      <stop
         offset=".344"
         stop-color="#a9a9a9"
         id="stop8" />
      <stop
         offset=".394"
         stop-color="#d3d3d3"
         id="stop10" />
      <stop
         offset=".614"
         stop-color="#fff"
         id="stop12" />
      <stop
         offset=".666"
         stop-color="#d3d3d3"
         id="stop14"
         style="stop-color:#ffffff;stop-opacity:1" />
      <stop
         offset="0.72261417"
         stop-color="gray"
         id="stop16"
         style="stop-color:#9e9e9e;stop-opacity:1" />
      <stop
         offset="1"
         stop-color="#fff"
         id="stop18" />
    </linearGradient>
    <linearGradient
       id="B"
       gradientUnits="userSpaceOnUse">
      <stop
         offset="0"
         stop-color="red"
         id="stop21" />
      <stop
         offset=".257"
         stop-color="red"
         id="stop23" />
      <stop
         offset=".344"
         stop-color="#600"
         id="stop25" />
      <stop
         offset=".394"
         stop-color="red"
         id="stop27" />
      <stop
         offset=".614"
         stop-color="red"
         id="stop29" />
      <stop
         offset=".724"
         stop-color="#940000"
         id="stop31" />
      <stop
         offset=".845"
         stop-color="red"
         id="stop33" />
    </linearGradient>
    <linearGradient
       xlink:href="#B"
       id="C"
       x1="78.831"
       y1="102.719"
       x2="105.132"
       y2="102.719"
       gradientTransform="translate(-54.979,-79.436)" />
    <linearGradient
       xlink:href="#linearGradient1695"
       id="D"
       x1="81.033"
       y1="104.19"
       x2="105.132"
       y2="104.19"
       gradientTransform="translate(-54.979,-79.436)" />
    <linearGradient
       xlink:href="#B"
       id="E"
       x1="78.831"
       y1="102.719"
       x2="105.132"
       y2="102.719"
       gradientTransform="matrix(-1,0,0,1,155.021,-79.436)" />
    <linearGradient
       xlink:href="#A"
       id="F"
       x1="81.033"
       y1="104.19"
       x2="105.132"
       y2="104.19"
       gradientTransform="matrix(-1,0,0,1,155.021,-79.436)" />
    <path
       id="G"
       d="M87.512 164.281h.794l-.391-1.231zm.04-1.946h.739l1.108 3.128h-.709l-.202-.643h-1.152l-.216.643h-.683zm.365 0z" />
    <path
       id="H"
       d="M90.43 162.879v.69h.768q.206 0 .333-.076.129-.078.129-.276 0-.219-.17-.289-.146-.049-.374-.049zm0 1.208v.834h.768q.206 0 .32-.055.208-.102.208-.391 0-.244-.202-.335-.112-.051-.316-.053zm.896-1.751q.575.008.815.333.144.2.144.478 0 .287-.144.461-.081.098-.238.178.24.087.361.276.123.189.123.458 0 .278-.14.499-.089.146-.223.246-.151.115-.357.157-.204.042-.444.042h-1.418v-3.128z" />
    <path
       id="I"
       d="M103.744 162.335v.554h-.936v2.574h-.658v-2.574h-.94v-.554z" />
    <path
       id="J"
       d="M79.203 114.163l2.173 1.134c6.013-1.13 7.159-5.237 7.654-7.654.473-2.311 2.689-4.45 5.386-6.426 4.54-3.325 3.431-9.578 10.583-9.686v-1.386c-9.356.776-7.819 7.519-10.388 9.263-2.055 1.396-5.833 3.582-6.763 7.478-.41 3.212-2.705 5.824-8.646 7.276z" />
    <path
       id="K"
       d="M81.188 116.809l.189-1.512c6.013-1.13 7.159-5.237 7.654-7.654.473-2.311 2.689-4.45 5.386-6.426 4.54-3.325 3.431-9.578 10.583-9.686v1.359c-5.596 0-6.26 7.278-8.829 9.023-2.055 1.396-5.219 3.298-6.148 7.194-.41 3.212-2.894 6.249-8.835 7.701z" />
    <path
       id="L"
       d="M117.583 143.297c.358-.426.506-.852.508-1.279-.721-2.173.225-2.966.832-4.191.287.998.891 2.584-.622 4.434z" />
    <path
       id="M"
       d="M118.185 141.181c-.135-.829.055-1.596.496-2.483-.004.766-.21 1.609-.496 2.483z" />
    <path
       id="N"
       d="M262.046 140.307c-.498.089-1.563-1.333-.351-1.971-.694-1.735 1.003-2.148 1.737-1.737 1.205-.849 2.121.152 1.771.702l-.15 3.174z" />
    <path
       id="O"
       d="M261.913 140.524c1.426.384 2.881 1.483 4.093 1.036 1.125-1.684-.295-2.886-.635-4.293l-.618 1.203-1.837-.267.167 1.503c-.545.087-.837.476-1.169.819z" />
    <path
       id="P"
       d="M262.126 138.245c-.313.378-.378.472-.348.891.052.723.839-.067.747-.54-.094-.485.261-1.246.85-1.011.449.179 1.217.319 1.229-.345-.113-.607-.928-.393-1.298-.157-.722-.371-1.456.573-1.181 1.161z" />
    <path
       id="Q"
       d="M263.517 138.782c.085.636.168 1.413-.65 1.561.467.212 1.336.243 1.837-.09.485-.505.853-1.653.715-2.07-.378.463-.933 1.134-1.575.635-.103-.038-.217-.06-.327-.036z" />
  </defs>
  <g
     class="N"
     id="g57"
     transform="translate(-54.979,-79.436)">
    <path
       d="m 105,80.781 48.742,35.413 -18.618,57.3 H 74.876 l -18.618,-57.3 z"
       stroke="#ffe115"
       stroke-width="2.175"
       class="C"
       id="path53" />
    <path
       d="m 78.504,161.05 h 52.993 v 5.779 H 78.504 Z"
       class="C F H O"
       id="path55" />
  </g>
  <g
     id="g1719">
    <path
       d="m 28.549,82.899 h 0.643 v 1.288 L 30.4,82.899 h 0.845 l -1.282,1.288 1.348,1.84 h -0.84 l -0.966,-1.367 -0.312,0.32 v 1.046 H 28.55 Z"
       id="path59" />
    <path
       id="use61"
       d="m 32.533,84.845 h 0.794 l -0.391,-1.231 z m 0.04,-1.946 h 0.739 l 1.108,3.128 h -0.709 l -0.202,-0.643 h -1.152 l -0.216,0.643 h -0.683 z m 0.365,0 z" />
    <path
       id="use63"
       d="m 35.451,83.443 v 0.69 h 0.768 q 0.206,0 0.333,-0.076 0.129,-0.078 0.129,-0.276 0,-0.219 -0.17,-0.289 -0.146,-0.049 -0.374,-0.049 z m 0,1.208 v 0.834 h 0.768 q 0.206,0 0.32,-0.055 0.208,-0.102 0.208,-0.391 0,-0.244 -0.202,-0.335 -0.112,-0.051 -0.316,-0.053 z M 36.347,82.9 q 0.575,0.008 0.815,0.333 0.144,0.2 0.144,0.478 0,0.287 -0.144,0.461 -0.081,0.098 -0.238,0.178 0.24,0.087 0.361,0.276 0.123,0.189 0.123,0.458 0,0.278 -0.14,0.499 -0.089,0.146 -0.223,0.246 -0.151,0.115 -0.357,0.157 -0.204,0.042 -0.444,0.042 H 34.826 V 82.9 Z" />
    <path
       d="m 37.955,82.899 h 0.664 v 1.923 q 0,0.323 0.076,0.471 0.119,0.263 0.518,0.263 0.397,0 0.516,-0.263 0.076,-0.149 0.076,-0.471 v -1.923 h 0.664 v 1.923 q 0,0.499 -0.155,0.777 -0.289,0.509 -1.102,0.509 -0.813,0 -1.104,-0.509 -0.155,-0.278 -0.155,-0.777 z m 1.259,0 z m 3.642,0.996 q 0,-0.244 -0.129,-0.348 -0.127,-0.104 -0.359,-0.104 h -0.609 v 0.921 h 0.609 q 0.231,0 0.359,-0.112 0.129,-0.112 0.129,-0.357 z m 0.647,-0.004 q 0,0.554 -0.28,0.783 -0.28,0.229 -0.8,0.229 h -0.664 v 1.125 H 41.11 V 82.9 h 1.363 q 0.471,0 0.751,0.242 0.28,0.242 0.28,0.749 z"
       id="path65" />
    <path
       id="use67"
       d="m 44.528,84.845 h 0.794 l -0.391,-1.231 z m 0.04,-1.946 h 0.739 l 1.108,3.128 h -0.709 l -0.202,-0.643 h -1.152 l -0.216,0.643 h -0.683 z m 0.365,0 z" />
    <path
       id="use69"
       d="m 48.765,82.899 v 0.554 h -0.936 v 2.574 h -0.658 v -2.574 h -0.94 v -0.554 z" />
    <path
       d="m 51.46,83.453 h -1.655 v 0.664 h 1.52 v 0.543 h -1.52 v 0.804 h 1.732 v 0.562 h -2.371 v -3.128 h 2.294 z m 0.575,-0.554 h 0.686 l 1.246,2.184 v -2.184 h 0.609 v 3.128 h -0.654 l -1.278,-2.222 v 2.222 h -0.609 z m 1.295,-0.006 z"
       id="path71" />
    <path
       id="use73"
       d="m 57.027,83.443 v 0.69 h 0.768 q 0.206,0 0.333,-0.076 0.129,-0.078 0.129,-0.276 0,-0.219 -0.17,-0.289 -0.146,-0.049 -0.374,-0.049 z m 0,1.208 v 0.834 h 0.768 q 0.206,0 0.32,-0.055 0.208,-0.102 0.208,-0.391 0,-0.244 -0.202,-0.335 -0.112,-0.051 -0.316,-0.053 z M 57.923,82.9 q 0.575,0.008 0.815,0.333 0.144,0.2 0.144,0.478 0,0.287 -0.144,0.461 -0.081,0.098 -0.238,0.178 0.24,0.087 0.361,0.276 0.123,0.189 0.123,0.458 0,0.278 -0.14,0.499 -0.089,0.146 -0.223,0.246 -0.151,0.115 -0.357,0.157 -0.204,0.042 -0.444,0.042 H 56.402 V 82.9 Z" />
    <path
       d="m 59.531,82.899 h 0.654 v 2.566 h 1.549 v 0.562 h -2.203 z m 3.254,3.129 H 62.136 V 82.9 h 0.649 z m -0.325,-3.19 z"
       id="path75" />
    <path
       id="use77"
       d="m 65.667,82.899 v 0.554 h -0.936 v 2.574 h -0.658 v -2.574 h -0.94 v -0.554 z" />
    <path
       id="use79"
       d="m 66.583999,84.845 h 0.794 l -0.391,-1.231 z m 0.04,-1.946 h 0.739 l 1.108,3.128 h -0.709 l -0.202,-0.643 h -1.152 l -0.216,0.643 h -0.683 z m 0.365,0 z" />
    <path
       d="m 69.521,83.443 v 0.84 h 0.741 q 0.221,0 0.331,-0.051 0.195,-0.089 0.195,-0.352 0,-0.284 -0.189,-0.382 -0.106,-0.055 -0.318,-0.055 z M 70.417,82.9 q 0.329,0.006 0.505,0.081 0.178,0.074 0.301,0.219 0.102,0.119 0.161,0.263 0.059,0.144 0.059,0.329 0,0.223 -0.112,0.439 -0.112,0.214 -0.371,0.304 0.216,0.087 0.306,0.248 0.091,0.159 0.091,0.488 v 0.21 q 0,0.214 0.017,0.291 0.025,0.121 0.119,0.178 v 0.078 H 70.774 Q 70.744,85.924 70.731,85.86 70.706,85.728 70.703,85.59 L 70.699,85.299 Q 70.695,85 70.589,84.9 70.485,84.8 70.196,84.8 h -0.675 v 1.227 h -0.639 v -3.128 z"
       id="path81" />
    <g
       class="F H N O"
       id="g99"
       transform="translate(-54.979,-79.436)">
      <path
         d="m 84.684,158.467 h 40.632 v 2.584 H 84.684 Z"
         class="C"
         id="path83" />
      <path
         d="m 87.597,155.883 h 34.807 v 2.584 H 87.597 Z"
         class="C"
         id="path85" />
      <path
         d="m 89.766,153.747 h 30.469 v 2.136 H 89.766 Z"
         class="C"
         id="path87" />
      <path
         d="m 93.921,152.088 h 22.159 v 1.659 H 93.921 Z"
         class="C"
         id="path89" />
      <path
         d="m 91.393,149.773 h 27.214 v 2.315 H 91.393 Z"
         class="C"
         id="path91" />
      <path
         d="m 94.133,147.505 h 21.734 v 2.268 H 94.133 Z"
         class="C"
         id="path93" />
      <path
         d="m 91.631,145.048 h 26.737 v 2.457 H 91.631 Z"
         class="C"
         id="path95" />
      <path
         d="m 88.095,142.686 h 33.81 v 2.362 h -33.81 z"
         class="C"
         id="path97" />
    </g>
    <path
       d="m 41.896,70.337 v 2.09 m 2.457,0 v 1.884 m -2.835,0 v 2.136 m -3.024,0 v 2.584 m -2.716,0 v 2.584 M 58.146,70.337 v 2.09 m -2.457,0 v 1.884 m 2.835,0 v 2.136 m 3.024,0 v 2.584 m 2.716,0 v 2.584"
       fill="none"
       class="B F"
       id="path101" />
  </g>
  <g
     class="H N O F"
     id="g131"
     transform="translate(-54.979,-79.436)">
    <path
       d="m 86.992,117.388 h 36.017 v 1.673 H 86.992 Z"
       class="C"
       id="path103" />
    <path
       d="m 89.097,115.518 h 31.805 v 1.87 H 89.097 Z"
       class="C"
       id="path105" />
    <path
       d="m 90.868,113.981 h 28.264 v 1.537 H 90.868 Z"
       class="C"
       id="path107" />
    <path
       d="m 92.438,112.511 h 25.123 v 1.47 H 92.438 Z"
       class="C"
       id="path109" />
    <path
       d="m 93.566,110.95 h 22.868 v 1.561 H 93.566 Z"
       class="C"
       id="path111" />
    <path
       d="m 94.866,109.155 h 20.269 v 1.795 H 94.866 Z"
       class="C"
       id="path113" />
    <path
       d="m 96.165,107.548 h 17.67 v 1.606 h -17.67 z"
       class="C"
       id="path115" />
    <path
       d="m 97.228,105.8 h 15.544 v 1.748 H 97.228 Z"
       class="C"
       id="path117" />
    <path
       d="m 98.234,103.853 h 13.533 v 2.004 H 98.234 Z"
       class="C"
       id="path119" />
    <path
       d="m 99.771,101.989 h 10.458 v 1.864 H 99.771 Z"
       class="C"
       id="path121" />
    <path
       d="m 101.143,100.478 h 7.715 v 1.511 h -7.715 z"
       class="C"
       id="path123" />
    <path
       d="m 102.189,98.808 h 5.622 v 1.701 h -5.622 z"
       class="C"
       id="path125" />
    <path
       d="m 103.11,97.39 h 3.78 v 1.417 h -3.78 z"
       class="C"
       id="path127" />
    <path
       d="m 103.996,95.831 h 2.008 v 1.559 h -2.008 z"
       class="C"
       id="path129" />
  </g>
  <g
     id="g1733">
    <path
       d="m 59.102,32.289 c -3.297,-2.466 -6.071,-2.895 -9.08,-4.175 -3.009,1.281 -5.786,1.714 -9.083,4.18 -3.29,2.461 -4.921,4.871 -6.762,7.334 l -0.012,0.009 v 0 l -10e-4,10e-4 0.002,0.005 c 0.286,3.255 -0.163,6.025 1.161,9.92 1.324,3.895 3.117,6.195 4.893,8.715 3.187,0.734 5.683,2.018 9.799,1.962 4.116,-0.056 6.857,-1.055 9.802,-1.966 1.776,-2.519 3.568,-4.817 4.893,-8.715 1.325,-3.898 0.875,-6.668 1.162,-9.926 l -0.002,0.006 C 64.028,37.17 62.397,34.755 59.101,32.29 Z"
       fill="#0094e0"
       id="path133" />
    <path
       d="m 45.602,48.7 c -0.702,0.128 -1.253,0.529 -1.488,1.5 -0.65,-1.136 -1.253,-0.504 -1.394,-1.347 -0.584,0.384 -1.657,0.28 -1.417,1.488 -1.534,-0.165 -0.654,-0.929 -1.394,-1.512 -0.677,0.496 -1.709,0.446 -1.825,1.801 -0.639,-0.497 -0.886,-1.492 -2.038,-1.336 0.654,0.406 0.198,0.753 -0.422,1.093 1.289,3.407 2.949,5.554 4.596,7.89 3.187,0.734 5.683,2.018 9.799,1.962 4.116,-0.056 6.857,-1.055 9.802,-1.966 1.646,-2.335 3.305,-4.481 4.594,-7.885 -0.62,-0.34 -1.077,-0.688 -0.423,-1.093 -1.153,-0.155 -1.399,0.839 -2.038,1.336 -0.117,-1.355 -1.149,-1.306 -1.825,-1.801 -0.74,0.583 0.141,1.347 -1.394,1.512 0.24,-1.208 -0.833,-1.104 -1.417,-1.488 -0.141,0.843 -0.743,0.21 -1.394,1.347 -0.235,-0.972 -0.786,-1.372 -1.488,-1.5 0.173,0.786 -0.673,0.931 -1.323,1.028 l -3.094,0.543 -3.094,-0.543 c -0.65,-0.097 -1.496,-0.242 -1.323,-1.028 z"
       fill="#da251c"
       id="path135" />
    <path
       d="m 50.021,30.664 c -2.048,0 -4.162,0.406 -5.15,3.118 -2.461,-0.563 -4.095,2.001 -4.299,3.355 -2.862,1.053 -1.258,5.504 -0.284,5.481 -0.346,1.769 0.017,3.459 0.803,5.103 0.264,-2.572 0.839,-3.788 1.607,-4.158 0.445,2.034 1.013,2.33 1.228,3.969 0.55,-0.188 0.235,-2.355 1.087,-3.733 0.891,0.651 0.001,2.697 1.181,3.733 0.636,-2.533 1.415,-2.683 2.126,-3.969 0.089,2.133 0.604,3.599 1.701,4.158 1.096,-0.559 1.612,-2.025 1.701,-4.158 0.711,1.285 1.49,1.435 2.126,3.969 1.181,-1.036 0.291,-3.082 1.181,-3.733 0.852,1.378 0.536,3.544 1.087,3.733 0.216,-1.638 0.783,-1.935 1.228,-3.969 0.768,0.37 1.342,1.586 1.607,4.158 0.786,-1.643 1.149,-3.333 0.803,-5.103 0.974,0.023 2.578,-4.428 -0.284,-5.481 -0.204,-1.354 -1.839,-3.918 -4.299,-3.355 -0.987,-2.712 -3.101,-3.118 -5.15,-3.118 z"
       opacity="0.998"
       class="I J"
       id="path137"
       style="stroke-width:0.265" />
    <g
       id="g1724">
      <path
         d="m 40.755,59.201 -4.965,3.903 c 3.45,2.982 8.014,5.543 14.232,7.355 6.218,-1.812 10.782,-4.373 14.232,-7.355 l -4.965,-3.903 h -9.268 z"
         class="D E"
         id="path139"
         style="stroke-width:0.265" />
      <path
         d="m 40.755,59.201 -4.965,3.903 c 1.004,0.65 3.552,2.503 7.65,1.425 1.772,1.622 4.125,1.818 6.582,1.759 2.457,0.059 4.81,-0.136 6.582,-1.759 4.098,1.078 6.647,-0.775 7.65,-1.425 l -4.965,-3.903 h -9.268 z"
         fill="#0094e0"
         stroke="#0079b7"
         id="path141"
         style="stroke-width:0.265" />
      <path
         d="m 40.755,59.201 -3.028,2.381 c 1.154,0.636 2.515,1.218 5.68,0.759 1.569,1.215 3.986,1.582 6.615,1.737 2.629,-0.155 5.046,-0.523 6.615,-1.737 3.165,0.459 4.526,-0.123 5.68,-0.759 l -3.028,-2.381 h -9.268 z"
         class="I J"
         id="path143"
         style="stroke-width:0.265" />
    </g>
  </g>
  <g
     id="g1677">
    <path
       id="use145"
       d="m 24.224,34.727 2.173,1.134 c 6.013,-1.13 7.159,-5.237 7.654,-7.654 0.473,-2.311 2.689,-4.45 5.386,-6.426 4.54,-3.325 3.431,-9.578 10.583,-9.686 v -1.386 c -9.356,0.776 -7.819,7.519 -10.388,9.263 -2.055,1.396 -5.833,3.582 -6.763,7.478 -0.41,3.212 -2.705,5.824 -8.646,7.276 z"
       style="fill:url(#C);stroke:#8b0000;stroke-width:0.265" />
    <path
       id="use147"
       d="m 26.209,37.373 0.189,-1.512 c 6.013,-1.13 7.159,-5.237 7.654,-7.654 0.473,-2.311 2.689,-4.45 5.386,-6.426 4.54,-3.325 3.431,-9.578 10.583,-9.686 v 1.359 c -5.596,0 -6.26,7.278 -8.829,9.023 -2.055,1.396 -5.219,3.298 -6.148,7.194 -0.41,3.212 -2.894,6.249 -8.835,7.701 z"
       style="fill:url(#D);stroke:#a9a9a9;stroke-width:0.265" />
    <path
       id="use151"
       d="m 75.818,34.727 -2.173,1.134 c -6.013,-1.13 -7.159,-5.237 -7.654,-7.654 -0.473,-2.311 -2.689,-4.45 -5.386,-6.426 -4.54,-3.325 -3.431,-9.578 -10.583,-9.686 v -1.386 c 9.356,0.776 7.819,7.519 10.388,9.263 2.055,1.396 5.833,3.582 6.763,7.478 0.41,3.212 2.705,5.824 8.646,7.276 z"
       style="fill:url(#E);stroke:#8b0000;stroke-width:0.265" />
    <path
       id="use153"
       d="m 73.833,37.373 -0.189,-1.512 c -6.013,-1.13 -7.159,-5.237 -7.654,-7.654 -0.473,-2.311 -2.689,-4.45 -5.386,-6.426 -4.54,-3.325 -3.431,-9.578 -10.583,-9.686 v 1.359 c 5.596,0 6.26,7.278 8.829,9.023 2.055,1.396 5.219,3.298 6.148,7.194 0.41,3.212 2.894,6.249 8.835,7.701 z"
       style="fill:url(#F);stroke:#a9a9a9;stroke-width:0.265" />
  </g>
  <g
     id="g1546">
    <g
       class="N"
       id="g161"
       transform="translate(-54.979,-79.436)">
      <path
         d="m 105,85.867 -1.146,3.527 h -3.709 l 3,2.18 -1.146,3.527 3.001,-2.18 3,2.18 -1.146,-3.527 3,-2.18 h -3.709 z"
         fill="#ffe220"
         class="C"
         id="path157" />
      <path
         d="m 105,85.867 v 5.105 l -1.146,-1.577 h -3.709 l 4.855,1.577 -1.855,0.603 -1.146,3.527 3.001,-4.13 v 1.95 l 3,2.18 -3,-4.13 1.855,0.603 3,-2.18 -4.855,1.577 1.146,-1.577 z"
         fill="#fff08e"
         class="C"
         id="path159" />
    </g>
  </g>
  <g
     id="g1671">
    <path
       id="use163"
       d="m 62.604,63.861 c 0.358,-0.426 0.506,-0.852 0.508,-1.279 -0.721,-2.173 0.225,-2.966 0.832,-4.191 0.287,0.998 0.891,2.584 -0.622,4.434 z"
       style="fill:#ffe115;stroke:#c3aa00;stroke-width:0.265" />
    <path
       id="use165"
       d="m 63.206,61.745 c -0.135,-0.829 0.055,-1.596 0.496,-2.483 -0.004,0.766 -0.21,1.609 -0.496,2.483 z"
       style="fill:#ffed76" />
    <path
       id="use167"
       d="m 65.511434,61.203036 c 0.299579,-0.53111 0.36598,-1.016047 0.270037,-1.469945 -1.300137,-2.149122 -0.432029,-3.199256 -0.03965,-4.633623 0.548111,0.996737 1.583386,2.54821 0.328694,4.845507 z"
       style="fill:#ffe115;stroke:#c3aa00;stroke-width:0.293866" />
    <path
       id="use169"
       d="m 65.693425,58.823559 c -0.340481,-0.850686 -0.305838,-1.706988 -0.02008,-2.745912 0.171657,0.814344 0.136719,1.754873 0.02008,2.745912 z"
       style="fill:#ffed76;stroke-width:1.10893" />
    <path
       id="use173"
       d="m 68.039924,58.287731 c 0.271132,-0.505456 0.31585,-0.957381 0.202885,-1.373062 -1.363207,-1.929012 -0.557058,-2.941187 -0.232876,-4.286981 0.578498,0.897194 1.657303,2.285292 0.524805,4.469718 z"
       style="fill:#ffe115;stroke:#c3aa00;stroke-width:0.280077" />
    <path
       id="use175"
       d="m 68.118498,56.076895 c -0.369054,-0.771621 -0.370989,-1.565806 -0.134656,-2.540648 0.202204,0.745799 0.207378,1.617957 0.134656,2.540648 z"
       style="fill:#ffed76;stroke-width:1.05689" />
    <path
       id="use179"
       d="m 70.126567,55.002807 c 0.273797,-0.504017 0.320899,-0.9557 0.21013,-1.371971 -1.353006,-1.936182 -0.541525,-2.944089 -0.210244,-4.288153 0.573755,0.900236 1.645218,2.29401 0.501204,4.472428 z"
       style="fill:#ffe115;stroke:#c3aa00;stroke-width:0.280077" />
    <path
       id="use181"
       d="m 70.21681,52.792417 c -0.364976,-0.77356 -0.362718,-1.567743 -0.121243,-2.541325 0.198264,0.746856 0.198834,1.61903 0.121243,2.541325 z"
       style="fill:#ffed76;stroke-width:1.05689" />
    <path
       id="use185"
       d="m 71.942585,51.610103 c 0.231801,-0.524659 0.241928,-0.978678 0.0976,-1.384535 -1.506329,-1.81945 -0.779706,-2.890149 -0.559087,-4.256744 0.645227,0.850471 1.826735,2.152268 0.864099,4.41669 z"
       style="fill:#ffe115;stroke:#c3aa00;stroke-width:0.280077" />
    <path
       id="use187"
       d="m 71.852351,49.399712 c -0.426817,-0.741235 -0.489303,-1.53296 -0.327992,-2.522985 0.258484,0.72821 0.330146,1.597434 0.327992,2.522985 z"
       style="fill:#ffed76;stroke-width:1.05689" />
    <path
       id="use191"
       d="m 73.465455,48.16107 c 0.231801,-0.524659 0.241928,-0.978678 0.0976,-1.384535 -1.506329,-1.81945 -0.779706,-2.890149 -0.559087,-4.256744 0.645227,0.850471 1.826735,2.152268 0.864099,4.41669 z"
       style="fill:#ffe115;stroke:#c3aa00;stroke-width:0.280077" />
    <path
       id="use193"
       d="m 73.375221,45.950679 c -0.426817,-0.741235 -0.489303,-1.53296 -0.327992,-2.522985 0.258484,0.72821 0.330146,1.597434 0.327992,2.522985 z"
       style="fill:#ffed76;stroke-width:1.05689" />
    <path
       id="use197"
       d="m 74.711638,45.12241 c 0.153873,-0.508969 0.134832,-0.939815 -0.0048,-1.317229 -1.312416,-1.648648 -0.795772,-2.700104 -0.701149,-4.006528 0.566415,0.773599 1.588336,1.947961 0.954438,4.142762 z"
       style="fill:#ffe115;stroke:#c3aa00;stroke-width:0.244231" />
    <path
       id="use199"
       d="m 74.507435,43.031868 c -0.38536,-0.681065 -0.482607,-1.428342 -0.412873,-2.374851 0.25007,0.6772 0.359281,1.497472 0.412873,2.374851 z"
       style="fill:#ffed76;stroke-width:0.921627" />
    <path
       id="use203"
       d="m 75.681501,42.313572 c 0.146588,-0.496608 0.128448,-0.916989 -0.0045,-1.285236 -1.250278,-1.608603 -0.758096,-2.634522 -0.667954,-3.909214 0.539598,0.754808 1.513136,1.900647 0.909251,4.04214 z"
       style="fill:#ffe115;stroke:#c3aa00;stroke-width:0.235466" />
    <path
       id="use205"
       d="m 75.486966,40.273806 c -0.367115,-0.664522 -0.459759,-1.393649 -0.393326,-2.317169 0.23823,0.660752 0.34227,1.4611 0.393326,2.317169 z"
       style="fill:#ffed76;stroke-width:0.888553" />
    <path
       id="use209"
       d="m 76.103776,40.880191 c 0.303507,-0.419512 0.426309,-0.821967 0.423466,-1.213478 -0.643648,-1.93301 0.161913,-2.736642 0.671145,-3.908671 0.257631,0.891364 0.794326,2.295886 -0.487842,4.114325 z"
       style="fill:#ffe115;stroke:#c3aa00;stroke-width:0.235467" />
    <path
       id="use211"
       d="m 76.599183,38.891959 c -0.125028,-0.74882 0.03027,-1.467216 0.400272,-2.31598 0.0047,0.702371 -0.163509,1.49172 -0.400272,2.31598 z"
       style="fill:#ffed76;stroke-width:0.888553" />
    <path
       id="use215"
       d="m 75.676811,42.267941 c 0.461262,-0.235255 0.753878,-0.537622 0.929652,-0.887468 0.307326,-2.01404 1.390491,-2.362617 2.377621,-3.174122 -0.17659,0.910889 -0.338445,2.405722 -2.308092,3.440691 z"
       style="fill:#ffe115;stroke:#c3aa00;stroke-width:0.235467" />
    <path
       id="use217"
       d="M 77.023355,40.723496 C 77.25308,39.9999 77.718515,39.43106 78.434469,38.843937 78.118814,39.4714 77.60953,40.097508 77.023355,40.723496 Z"
       style="fill:#ffed76;stroke-width:0.888553" />
    <path
       id="use221"
       d="m 74.784528,45.205075 c 0.494818,-0.194631 0.821169,-0.476563 1.030883,-0.819996 0.480665,-2.051692 1.626058,-2.297772 2.710043,-3.033076 -0.256162,0.923939 -0.544598,2.453728 -2.660008,3.316292 z"
       style="fill:#ffe115;stroke:#c3aa00;stroke-width:0.244231" />
    <path
       id="use223"
       d="m 76.298754,43.749333 c 0.295735,-0.724495 0.821974,-1.263894 1.608058,-1.795698 -0.376539,0.615917 -0.952655,1.209939 -1.608058,1.795698 z"
       style="fill:#ffed76;stroke-width:0.921627" />
    <path
       id="use227"
       d="m 73.720746,47.629866 c 0.533695,-0.05337 0.908666,-0.264728 1.173902,-0.586673 0.797136,-2.188425 2.001929,-2.077458 3.217307,-2.54875 -0.399462,0.971882 -0.922487,2.627642 -3.208664,2.8908 z"
       style="fill:#ffe115;stroke:#c3aa00;stroke-width:0.269879" />
    <path
       id="use229"
       d="m 75.482646,46.479887 c 0.409971,-0.729519 1.027295,-1.167582 1.908449,-1.507721 -0.476122,0.57723 -1.152479,1.060826 -1.908449,1.507721 z"
       style="fill:#ffed76;stroke-width:1.01841" />
    <path
       id="use233"
       d="m 71.946541,51.542299 c 0.569302,-0.06996 0.964309,-0.294024 1.238777,-0.626017 0.789903,-2.226091 2.081708,-2.151139 3.368152,-2.662332 -0.399413,0.989993 -0.911393,2.671813 -3.349108,3.006211 z"
       style="fill:#ffe115;stroke:#c3aa00;stroke-width:0.280077" />
    <path
       id="use235"
       d="m 73.798091,50.331621 c 0.417597,-0.746468 1.065325,-1.206013 1.998046,-1.57507 -0.492713,0.595262 -1.202278,1.102416 -1.998046,1.57507 z"
       style="fill:#ffed76;stroke-width:1.05689" />
    <path
       id="use239"
       d="m 70.499233,54.349476 c 0.573537,0.0073 0.995105,-0.161565 1.311758,-0.453596 1.08232,-2.099526 2.352283,-1.851395 3.695822,-2.184797 -0.529019,0.92723 -1.262692,2.524841 -3.723233,2.52811 z"
       style="fill:#ffe115;stroke:#c3aa00;stroke-width:0.280077" />
    <path
       id="use241"
       d="m 72.496877,53.39901 c 0.514262,-0.683473 1.217946,-1.05166 2.191851,-1.291827 -0.568346,0.523533 -1.33971,0.930574 -2.191851,1.291827 z"
       style="fill:#ffed76;stroke-width:1.05689" />
    <path
       id="use245"
       d="m 68.661753,57.673636 c 0.573537,0.0073 0.995105,-0.161565 1.311758,-0.453596 1.08232,-2.099526 2.352283,-1.851395 3.695822,-2.184797 -0.529019,0.92723 -1.262692,2.524841 -3.723233,2.52811 z"
       style="fill:#ffe115;stroke:#c3aa00;stroke-width:0.280077" />
    <path
       id="use247"
       d="m 70.659397,56.72317 c 0.514262,-0.683473 1.217946,-1.05166 2.191851,-1.291827 -0.568346,0.523533 -1.33971,0.930574 -2.191851,1.291827 z"
       style="fill:#ffed76;stroke-width:1.05689" />
    <path
       id="use251"
       d="m 66.01774,60.561424 c 0.567076,0.08616 1.007872,-0.02309 1.3617,-0.268766 1.360947,-1.93061 2.584682,-1.510076 3.96132,-1.655418 -0.651586,0.845609 -1.598132,2.327058 -4.035714,1.991693 z"
       style="fill:#ffe115;stroke:#c3aa00;stroke-width:0.280077" />
    <path
       id="use253"
       d="m 68.127177,59.894902 c 0.603425,-0.606201 1.351082,-0.874049 2.348772,-0.977909 -0.634984,0.440341 -1.455025,0.737359 -2.348772,0.977909 z"
       style="fill:#ffed76;stroke-width:1.05689" />
    <path
       id="use257"
       d="m 63.12645,63.249517 c 0.555396,0.143295 1.005007,0.07937 1.381952,-0.129105 1.549951,-1.782435 2.724658,-1.239814 4.108939,-1.244616 -0.734083,0.775073 -1.826166,2.152748 -4.217095,1.571598 z"
       style="fill:#ffe115;stroke:#c3aa00;stroke-width:0.280077" />
    <path
       id="use259"
       d="m 65.292663,62.80064 c 0.661861,-0.541795 1.432851,-0.732339 2.43593,-0.734353 -0.676415,0.373586 -1.522376,0.5858 -2.43593,0.734353 z"
       style="fill:#ffed76;stroke-width:1.05689" />
    <path
       d="M 76.32,40.415 C 71.04,57.167 64.34,66.235 50.154,69.484 v 0.902 C 70.187,64.547 72.843,50.841 76.59,40.418 Z"
       class="D E"
       id="path263"
       style="stroke-width:0.265;" />
  </g>
  <g
     id="g1634">
    <path
       d="M 23.723,40.414 C 29.22,57.21 35.787,66.251 49.889,69.483 v 0.902 C 29.856,64.546 26.987,50.934 23.24,40.512 Z"
       class="I J"
       id="path265"
       style="stroke-width:0.265;" />
    <g
       transform="matrix(0.560484,0.499123,-0.442264,0.679942,-63.22598,-187.82781)"
       id="g279">
      <g
         class="B"
         id="g273">
        <path
           id="use269"
           d="m 262.046,140.307 c -0.498,0.089 -1.563,-1.333 -0.351,-1.971 -0.694,-1.735 1.003,-2.148 1.737,-1.737 1.205,-0.849 2.121,0.152 1.771,0.702 l -0.15,3.174 z"
           style="fill:#e4e4e4;stroke:#acacac" />
        <path
           id="use271"
           d="m 261.913,140.524 c 1.426,0.384 2.881,1.483 4.093,1.036 1.125,-1.684 -0.295,-2.886 -0.635,-4.293 l -0.618,1.203 -1.837,-0.267 0.167,1.503 c -0.545,0.087 -0.837,0.476 -1.169,0.819 z"
           style="fill:#00923f;stroke:#005a27" />
      </g>
      <path
         id="use275"
         d="m 262.126,138.245 c -0.313,0.378 -0.378,0.472 -0.348,0.891 0.052,0.723 0.839,-0.067 0.747,-0.54 -0.094,-0.485 0.261,-1.246 0.85,-1.011 0.449,0.179 1.217,0.319 1.229,-0.345 -0.113,-0.607 -0.928,-0.393 -1.298,-0.157 -0.722,-0.371 -1.456,0.573 -1.181,1.161 z"
         style="fill:#ffffff" />
      <path
         id="use277"
         d="m 263.517,138.782 c 0.085,0.636 0.168,1.413 -0.65,1.561 0.467,0.212 1.336,0.243 1.837,-0.09 0.485,-0.505 0.853,-1.653 0.715,-2.07 -0.378,0.463 -0.933,1.134 -1.575,0.635 -0.103,-0.038 -0.217,-0.06 -0.327,-0.036 z"
         style="fill:#00ac4b" />
    </g>
    <g
       transform="matrix(0.6173,0.426856,-0.355818,0.728912,-89.66223,-172.73523)"
       id="g291">
      <g
         class="B"
         id="g285">
        <path
           id="use281"
           d="m 262.046,140.307 c -0.498,0.089 -1.563,-1.333 -0.351,-1.971 -0.694,-1.735 1.003,-2.148 1.737,-1.737 1.205,-0.849 2.121,0.152 1.771,0.702 l -0.15,3.174 z"
           style="fill:#e4e4e4;stroke:#acacac" />
        <path
           id="use283"
           d="m 261.913,140.524 c 1.426,0.384 2.881,1.483 4.093,1.036 1.125,-1.684 -0.295,-2.886 -0.635,-4.293 l -0.618,1.203 -1.837,-0.267 0.167,1.503 c -0.545,0.087 -0.837,0.476 -1.169,0.819 z"
           style="fill:#00923f;stroke:#005a27" />
      </g>
      <path
         id="use287"
         d="m 262.126,138.245 c -0.313,0.378 -0.378,0.472 -0.348,0.891 0.052,0.723 0.839,-0.067 0.747,-0.54 -0.094,-0.485 0.261,-1.246 0.85,-1.011 0.449,0.179 1.217,0.319 1.229,-0.345 -0.113,-0.607 -0.928,-0.393 -1.298,-0.157 -0.722,-0.371 -1.456,0.573 -1.181,1.161 z"
         style="fill:#ffffff" />
      <path
         id="use289"
         d="m 263.517,138.782 c 0.085,0.636 0.168,1.413 -0.65,1.561 0.467,0.212 1.336,0.243 1.837,-0.09 0.485,-0.505 0.853,-1.653 0.715,-2.07 -0.378,0.463 -0.933,1.134 -1.575,0.635 -0.103,-0.038 -0.217,-0.06 -0.327,-0.036 z"
         style="fill:#00ac4b" />
    </g>
    <g
       class="B"
       id="g297"
       transform="matrix(0.680707,0.316076,-0.227152,0.778666,-123.66636,-147.50711)">
      <path
         id="use293"
         d="m 262.046,140.307 c -0.498,0.089 -1.563,-1.333 -0.351,-1.971 -0.694,-1.735 1.003,-2.148 1.737,-1.737 1.205,-0.849 2.121,0.152 1.771,0.702 l -0.15,3.174 z"
         style="fill:#e4e4e4;stroke:#acacac" />
      <path
         id="use295"
         d="m 261.913,140.524 c 1.426,0.384 2.881,1.483 4.093,1.036 1.125,-1.684 -0.295,-2.886 -0.635,-4.293 l -0.618,1.203 -1.837,-0.267 0.167,1.503 c -0.545,0.087 -0.837,0.476 -1.169,0.819 z"
         style="fill:#00923f;stroke:#005a27" />
    </g>
    <path
       id="use299"
       d="m 23.362015,42.991309 c -0.298925,0.195404 -0.364523,0.248053 -0.439279,0.583797 -0.128834,0.579411 0.586333,0.213017 0.631151,-0.184371 0.04618,-0.407364 0.460696,-0.887722 0.808251,-0.518567 0.264977,0.281299 0.755959,0.633059 0.914957,0.119818 0.06096,-0.508367 -0.542426,-0.599335 -0.847895,-0.532517 -0.407197,-0.517092 -1.121268,-0.01403 -1.067639,0.530745 z"
       style="fill:#ffffff;stroke-width:0.775784" />
    <path
       id="use301"
       d="m 24.186898,43.849114 c -0.08661,0.522098 -0.206607,1.153356 -0.797044,1.010048 0.269734,0.312685 0.854226,0.611494 1.270902,0.510552 0.444855,-0.239929 0.956126,-1.017522 0.95691,-1.385844 -0.362478,0.241045 -0.89269,0.588108 -1.216355,-0.0034 -0.06148,-0.06215 -0.134084,-0.115309 -0.214413,-0.131389 z"
       style="fill:#00ac4b;stroke-width:0.775784" />
    <g
       transform="matrix(0.775497,0.284559,-0.21446,0.78628,-149.14501,-137.04203)"
       id="g315">
      <g
         class="B"
         id="g309">
        <path
           id="use305"
           d="m 262.046,140.307 c -0.498,0.089 -1.563,-1.333 -0.351,-1.971 -0.694,-1.735 1.003,-2.148 1.737,-1.737 1.205,-0.849 2.121,0.152 1.771,0.702 l -0.15,3.174 z"
           style="fill:#e4e4e4;stroke:#acacac" />
        <path
           id="use307"
           d="m 261.913,140.524 c 1.426,0.384 2.881,1.483 4.093,1.036 1.125,-1.684 -0.295,-2.886 -0.635,-4.293 l -0.618,1.203 -1.837,-0.267 0.167,1.503 c -0.545,0.087 -0.837,0.476 -1.169,0.819 z"
           style="fill:#00923f;stroke:#005a27" />
      </g>
      <path
         id="use311"
         d="m 262.126,138.245 c -0.313,0.378 -0.378,0.472 -0.348,0.891 0.052,0.723 0.839,-0.067 0.747,-0.54 -0.094,-0.485 0.261,-1.246 0.85,-1.011 0.449,0.179 1.217,0.319 1.229,-0.345 -0.113,-0.607 -0.928,-0.393 -1.298,-0.157 -0.722,-0.371 -1.456,0.573 -1.181,1.161 z"
         style="fill:#ffffff" />
      <path
         id="use313"
         d="m 263.517,138.782 c 0.085,0.636 0.168,1.413 -0.65,1.561 0.467,0.212 1.336,0.243 1.837,-0.09 0.485,-0.505 0.853,-1.653 0.715,-2.07 -0.378,0.463 -0.933,1.134 -1.575,0.635 -0.103,-0.038 -0.217,-0.06 -0.327,-0.036 z"
         style="fill:#00ac4b" />
    </g>
    <g
       transform="matrix(0.810204,0.302671,-0.224058,0.836327,-155.68447,-145.80861)"
       id="g327">
      <g
         class="B"
         id="g321">
        <path
           id="use317"
           d="m 262.046,140.307 c -0.498,0.089 -1.563,-1.333 -0.351,-1.971 -0.694,-1.735 1.003,-2.148 1.737,-1.737 1.205,-0.849 2.121,0.152 1.771,0.702 l -0.15,3.174 z"
           style="fill:#e4e4e4;stroke:#acacac" />
        <path
           id="use319"
           d="m 261.913,140.524 c 1.426,0.384 2.881,1.483 4.093,1.036 1.125,-1.684 -0.295,-2.886 -0.635,-4.293 l -0.618,1.203 -1.837,-0.267 0.167,1.503 c -0.545,0.087 -0.837,0.476 -1.169,0.819 z"
           style="fill:#00923f;stroke:#005a27" />
      </g>
      <path
         id="use323"
         d="m 262.126,138.245 c -0.313,0.378 -0.378,0.472 -0.348,0.891 0.052,0.723 0.839,-0.067 0.747,-0.54 -0.094,-0.485 0.261,-1.246 0.85,-1.011 0.449,0.179 1.217,0.319 1.229,-0.345 -0.113,-0.607 -0.928,-0.393 -1.298,-0.157 -0.722,-0.371 -1.456,0.573 -1.181,1.161 z"
         style="fill:#ffffff" />
      <path
         id="use325"
         d="m 263.517,138.782 c 0.085,0.636 0.168,1.413 -0.65,1.561 0.467,0.212 1.336,0.243 1.837,-0.09 0.485,-0.505 0.853,-1.653 0.715,-2.07 -0.378,0.463 -0.933,1.134 -1.575,0.635 -0.103,-0.038 -0.217,-0.06 -0.327,-0.036 z"
         style="fill:#00ac4b" />
    </g>
    <g
       transform="matrix(0.872452,0.313999,-0.241272,0.867628,-168.14173,-150.18848)"
       id="g339">
      <g
         class="B"
         id="g333">
        <path
           id="use329"
           d="m 262.046,140.307 c -0.498,0.089 -1.563,-1.333 -0.351,-1.971 -0.694,-1.735 1.003,-2.148 1.737,-1.737 1.205,-0.849 2.121,0.152 1.771,0.702 l -0.15,3.174 z"
           style="fill:#e4e4e4;stroke:#acacac" />
        <path
           id="use331"
           d="m 261.913,140.524 c 1.426,0.384 2.881,1.483 4.093,1.036 1.125,-1.684 -0.295,-2.886 -0.635,-4.293 l -0.618,1.203 -1.837,-0.267 0.167,1.503 c -0.545,0.087 -0.837,0.476 -1.169,0.819 z"
           style="fill:#00923f;stroke:#005a27" />
      </g>
      <path
         id="use335"
         d="m 262.126,138.245 c -0.313,0.378 -0.378,0.472 -0.348,0.891 0.052,0.723 0.839,-0.067 0.747,-0.54 -0.094,-0.485 0.261,-1.246 0.85,-1.011 0.449,0.179 1.217,0.319 1.229,-0.345 -0.113,-0.607 -0.928,-0.393 -1.298,-0.157 -0.722,-0.371 -1.456,0.573 -1.181,1.161 z"
         style="fill:#ffffff" />
      <path
         id="use337"
         d="m 263.517,138.782 c 0.085,0.636 0.168,1.413 -0.65,1.561 0.467,0.212 1.336,0.243 1.837,-0.09 0.485,-0.505 0.853,-1.653 0.715,-2.07 -0.378,0.463 -0.933,1.134 -1.575,0.635 -0.103,-0.038 -0.217,-0.06 -0.327,-0.036 z"
         style="fill:#00ac4b" />
    </g>
    <g
       transform="matrix(0.828951,0.239238,-0.219222,0.904637,-157.8953,-132.48347)"
       id="g351">
      <g
         class="B"
         id="g345">
        <path
           id="use341"
           d="m 262.046,140.307 c -0.498,0.089 -1.563,-1.333 -0.351,-1.971 -0.694,-1.735 1.003,-2.148 1.737,-1.737 1.205,-0.849 2.121,0.152 1.771,0.702 l -0.15,3.174 z"
           style="fill:#e4e4e4;stroke:#acacac" />
        <path
           id="use343"
           d="m 261.913,140.524 c 1.426,0.384 2.881,1.483 4.093,1.036 1.125,-1.684 -0.295,-2.886 -0.635,-4.293 l -0.618,1.203 -1.837,-0.267 0.167,1.503 c -0.545,0.087 -0.837,0.476 -1.169,0.819 z"
           style="fill:#00923f;stroke:#005a27" />
      </g>
      <path
         id="use347"
         d="m 262.126,138.245 c -0.313,0.378 -0.378,0.472 -0.348,0.891 0.052,0.723 0.839,-0.067 0.747,-0.54 -0.094,-0.485 0.261,-1.246 0.85,-1.011 0.449,0.179 1.217,0.319 1.229,-0.345 -0.113,-0.607 -0.928,-0.393 -1.298,-0.157 -0.722,-0.371 -1.456,0.573 -1.181,1.161 z"
         style="fill:#ffffff" />
      <path
         id="use349"
         d="m 263.517,138.782 c 0.085,0.636 0.168,1.413 -0.65,1.561 0.467,0.212 1.336,0.243 1.837,-0.09 0.485,-0.505 0.853,-1.653 0.715,-2.07 -0.378,0.463 -0.933,1.134 -1.575,0.635 -0.103,-0.038 -0.217,-0.06 -0.327,-0.036 z"
         style="fill:#00ac4b" />
    </g>
    <g
       class="B"
       id="g357"
       transform="translate(-54.979,-79.436)">
      <path
         id="use353"
         d="m 86.131999,140.233 c -0.498,0.089 -1.563,-1.333 -0.351,-1.971 -0.694,-1.735 1.003,-2.148 1.737,-1.737 1.205,-0.849 2.121,0.152 1.771,0.702 l -0.15,3.174 z"
         style="fill:#e4e4e4;stroke:#acacac" />
      <path
         id="use355"
         d="m 85.998999,140.45 c 1.426,0.384 2.881,1.483 4.093,1.036 1.125,-1.684 -0.295,-2.886 -0.635,-4.293 l -0.618,1.203 -1.837,-0.267 0.167,1.503 c -0.545,0.087 -0.837,0.476 -1.169,0.819 z"
         style="fill:#00923f;stroke:#005a27" />
    </g>
    <path
       id="use359"
       d="m 31.232999,58.735 c -0.313,0.378 -0.378,0.472 -0.348,0.891 0.052,0.723 0.839,-0.067 0.747,-0.54 -0.094,-0.485 0.261,-1.246 0.85,-1.011 0.449,0.179 1.217,0.319 1.229,-0.345 -0.113,-0.607 -0.928,-0.393 -1.298,-0.157 -0.722,-0.371 -1.456,0.573 -1.181,1.161 z"
       style="fill:#ffffff" />
    <path
       id="use361"
       d="m 32.623999,59.272 c 0.085,0.636 0.168,1.413 -0.65,1.561 0.467,0.212 1.336,0.243 1.837,-0.09 0.485,-0.505 0.853,-1.653 0.715,-2.07 -0.378,0.463 -0.933,1.134 -1.575,0.635 -0.103,-0.038 -0.217,-0.06 -0.327,-0.036 z"
       style="fill:#00ac4b" />
  </g>
  <g
     id="g1585">
    <path
       d="m 50.021,20.513 c -0.504,3.12 -1.304,5.437 -1.329,8.953 -0.023,3.336 0.964,4.106 -0.367,9.288 -1.029,4.007 -1.358,10.223 -1.871,14.7 -0.372,2.663 -2.528,4.135 -5.292,5.203 1.744,-0.35 3.391,-0.584 4.965,-0.728 l -0.016,2.31 1.937,0.213 c -0.049,1.139 0.254,2.241 -0.331,3.437 -0.125,0.68 -0.319,1.053 -0.331,2.244 0.419,2.399 -0.145,2.483 -0.224,3.709 -0.093,2.062 2.047,2.518 2.858,2.587 0.812,-0.069 2.951,-0.524 2.858,-2.587 -0.079,-1.226 -0.644,-1.31 -0.224,-3.709 -0.012,-1.191 -0.205,-1.565 -0.331,-2.244 -0.585,-1.196 -0.282,-2.298 -0.331,-3.437 l 1.937,-0.213 -0.016,-2.319 c 1.861,0.161 3.65,0.423 5.415,0.736 -5.509,-4.376 -6.25,-9.462 -6.06,-14.625 0.149,-4.028 0.698,-7.985 -0.935,-11.426 -1.957,-4.122 -0.214,-9.468 -2.313,-12.094 z"
       id="path363" />
    <path
       d="m 50.021,58.273 c -0.637,0 -3.07,0.436 -3.015,0.928 0.185,0.532 0.724,0.609 1.345,0.442 0.621,-0.167 0.85,-0.442 1.671,-0.442 0.821,0 1.05,0.275 1.671,0.442 0.621,0.167 1.159,0.09 1.345,-0.442 0.055,-0.491 -2.379,-0.928 -3.015,-0.928 z m 0,1.721 c -0.549,-0.04 -1.825,0.43 -1.412,1.052 0.413,0.622 0.926,1.038 0.969,1.787 0.055,0.968 0.254,1.434 0.443,1.629 0.189,-0.195 0.388,-0.661 0.443,-1.629 0.043,-0.749 0.556,-1.165 0.969,-1.787 0.413,-0.622 -0.863,-1.092 -1.412,-1.052 z"
       class="B F H"
       id="path365" />
  </g>
</svg>
